<?xml version="1.0" standalone="no"?>
<!DOCTYPE svg PUBLIC "-//W3C//DTD SVG 20010904//EN"
 "http://www.w3.org/TR/2001/REC-SVG-20010904/DTD/svg10.dtd">
<svg version="1.0" xmlns="http://www.w3.org/2000/svg"
 width="176.000000pt" height="176.000000pt" viewBox="0 0 176.000000 176.000000"
 preserveAspectRatio="xMidYMid meet">
<metadata>
Created by potrace 1.11, written by Peter Selinger 2001-2013
</metadata>
<g transform="translate(0.000000,176.000000) scale(0.100000,-0.100000)"
fill="#000000" stroke="none">
<path d="M488 1563 c-9 -10 -18 -44 -20 -76 -6 -75 -40 -114 -108 -123 -42 -5
-48 -2 -94 35 -51 43 -85 51 -110 25 -25 -25 -20 -67 13 -98 61 -58 65 -129
11 -181 -24 -23 -41 -29 -87 -33 -64 -5 -93 -23 -93 -58 0 -21 22 -53 38 -55
4 0 29 -3 56 -5 61 -6 82 -17 106 -57 35 -56 25 -99 -37 -167 -25 -27 -30 -72
-10 -88 33 -26 56 -23 96 13 52 47 99 60 145 41 52 -22 73 -62 75 -143 1 -39
24 -63 60 -63 38 0 53 21 56 76 6 102 49 142 142 136 12 -1 42 -20 67 -41 47
-41 75 -46 103 -18 27 27 22 53 -18 102 -21 26 -39 55 -40 64 0 9 -2 23 -4 32
-5 27 26 79 57 95 16 9 52 17 80 19 61 5 78 18 78 61 0 40 -18 52 -89 57 -61
5 -98 28 -116 71 -18 43 -11 82 23 125 56 69 55 67 40 98 -18 38 -65 43 -99
11 -60 -58 -106 -70 -158 -43 -42 21 -60 52 -65 110 -2 28 -4 53 -5 57 -1 4
-8 14 -17 22 -21 21 -57 20 -76 -1z m-9 -347 c65 -34 61 -130 -7 -154 -61 -21
-110 11 -118 79 -3 23 3 38 25 60 33 32 58 36 100 15z m209 -178 c20 -20 14
-54 -12 -66 -27 -12 -48 -1 -59 30 -12 35 44 63 71 36z"/>
<path d="M1348 963 c-19 -5 -30 -32 -33 -82 -3 -49 -46 -85 -93 -77 -19 3 -47
17 -62 31 -28 27 -59 32 -78 13 -18 -18 -15 -45 7 -67 68 -68 45 -157 -44
-165 -60 -6 -75 -15 -75 -46 0 -31 15 -41 68 -45 91 -8 120 -87 57 -159 -27
-32 -32 -55 -13 -74 20 -20 47 -14 88 19 33 26 44 30 73 25 47 -9 65 -33 74
-97 8 -50 10 -54 37 -57 37 -5 48 8 52 58 4 57 26 88 69 96 35 6 68 -7 103
-43 18 -18 59 -16 66 3 11 29 6 46 -24 81 -33 37 -35 46 -19 92 13 37 37 52
90 56 46 4 55 9 62 34 8 30 -14 50 -58 55 -57 6 -74 15 -91 48 -19 37 -11 78
22 108 26 25 31 59 12 78 -20 20 -45 14 -81 -18 -39 -33 -64 -37 -107 -15 -30
15 -42 40 -45 90 -1 17 -3 33 -4 37 -2 12 -35 25 -53 21z m27 -288 c56 -55 21
-145 -55 -145 -88 0 -121 103 -51 157 27 21 79 15 106 -12z"/>
</g>
</svg>
