<svg xmlns="http://www.w3.org/2000/svg" width="86.587" height="120" viewBox="0 0 86.587 120">
  <g id="_5803987_-_coronavirus_covid_mask_mask_hygiene_medical" data-name="5803987 - coronavirus covid mask mask hygiene medical" transform="translate(-17.86)">
    <path id="Path_7" data-name="Path 7" d="M96.368,85.583c3.021-10.218,8.079-27.333,8.079-36.378,0-18.372-5.63-49.2-43.293-49.2C45.756,0,34.168,5.489,26.7,16.308c-7.3,10.584-8.839,23.73-8.839,32.9,0,8.942,4.541,23.542,7.506,33.207,1.1,3.5,1.952,6.268,2.205,7.506a.131.131,0,0,1,0,.056c1.755,7.947,5.63,18.766,7.506,20.643C40.013,115.543,52.4,120,61.06,120c7.825,0,20.427-3.866,25.982-9.383C89.256,108.4,92.2,100.54,94,93.624a1.774,1.774,0,0,0,.084-.319,1.823,1.823,0,0,1,.094-.394c.038-.141.1-.413.15-.629C94.811,90.856,95.514,88.464,96.368,85.583Zm-1.745-7.394a20.765,20.765,0,0,0-5.855-9.158,97.217,97.217,0,0,0,9.777-5.7C97.4,68.281,95.965,73.526,94.623,78.189ZM37.555,66.929c-6.662-2.815-14.009-6.784-14.731-8.313a1.22,1.22,0,0,0-.075-.16,64.549,64.549,0,0,1-1-6.465,28.149,28.149,0,0,0,5.921,4.757,1.877,1.877,0,0,0,2.815-1.314c0-.1,1.745-10.2,4.767-16.233,2.027-4.1,6.746-8.848,9.017-11.053C46.9,30.861,53.046,36.782,58.4,39.08c7.037,3.012,19.639,4.973,20.174,5.057a1.877,1.877,0,0,0,2.167-1.877,31.621,31.621,0,0,0-2.111-10.556c-.178-.441-.357-.863-.535-1.276a54.666,54.666,0,0,1,10.406,6.38C93.825,41.229,99.99,51,100.093,55.125v.066c-.1.676-.225,1.379-.347,2.092a.665.665,0,0,0-.075.141c-.732,1.548-8.248,6.043-15.013,9.449-1.989-.61-4.138-1.436-6.418-2.327-5.348-2.046-11.41-4.4-17.087-4.4-6.249,0-13.427,2.815-19.2,5.1-1.586.629-3.087,1.21-4.4,1.67Zm23.6-63.176c31.039,0,38.78,22.3,39.475,42.308a47.206,47.206,0,0,0-9.683-12.1c-6.071-5.057-15.857-9.008-16.28-9.177a1.877,1.877,0,0,0-2.252,2.74,41.754,41.754,0,0,1,2.815,5.63,27.061,27.061,0,0,1,1.67,6.915c-3.96-.713-12.067-2.318-16.89-4.41-6.146-2.627-14.075-11.26-14.15-11.372a1.877,1.877,0,0,0-2.618-.15c-.338.3-8.2,7.225-11.26,13.4-2.261,4.5-3.753,10.819-4.56,14.441-2.027-1.567-4.551-4.025-5.583-6.793C22.552,30.148,28.632,3.753,61.153,3.753ZM24.09,64.34a78.82,78.82,0,0,0,9.327,4.851,20.1,20.1,0,0,0-5.545,8.445C26.643,73.657,25.244,68.956,24.09,64.34ZM84.48,108.027c-4.363,4.354-15.473,8.323-23.326,8.323-7.572,0-19.123-4.119-23.317-8.313-1.2-1.323-4.889-11.372-6.568-18.766a.347.347,0,0,1,0-.1,3.918,3.918,0,0,0-.188-.807,24.724,24.724,0,0,1-.619-4.692c0-5.189,3.838-11.757,7.591-13.014,1.548-.507,3.34-1.22,5.245-1.97C48.805,66.62,55.617,63.9,61.153,63.9c4.973,0,10.434,2.13,15.726,4.185,2.618,1.023,5.1,1.98,7.422,2.646,3.753,1.079,7.769,8.276,7.647,13.765a32.841,32.841,0,0,1-.938,6.165c-.216.816-.385,1.492-.488,1.98h0c-1.67,6.437-4.363,13.709-6.043,15.388Z" fill="#fff"/>
    <path id="Path_8" data-name="Path 8" d="M73.78,63.89a2.4,2.4,0,0,0,1.041.243,2.313,2.313,0,0,0,2.07-1.284,7.251,7.251,0,0,1,6.43-3.585,10.882,10.882,0,0,1,7.875,3.943,2.313,2.313,0,1,0,3.7-2.775A15.392,15.392,0,0,0,83.332,54.65a11.969,11.969,0,0,0-10.581,6.187A2.313,2.313,0,0,0,73.78,63.89Z" transform="translate(-6.618 -4.188)" fill="#fff"/>
    <path id="Path_9" data-name="Path 9" d="M54.208,62.866a2.313,2.313,0,0,0,2.058,1.26,2.4,2.4,0,0,0,1.041-.243,2.313,2.313,0,0,0,1.029-3.053,11.969,11.969,0,0,0-10.569-6.14A15.392,15.392,0,0,0,36.2,60.472a2.313,2.313,0,1,0,3.7,2.775A10.87,10.87,0,0,1,47.778,59.3,7.32,7.32,0,0,1,54.208,62.866Z" transform="translate(-2.164 -4.191)" fill="#fff"/>
    <path id="Path_10" data-name="Path 10" d="M46.453,62a2.313,2.313,0,1,0,2.313,2.313A2.313,2.313,0,0,0,46.453,62Z" transform="translate(-1.881 -4.262)" fill="#fff"/>
    <path id="Path_11" data-name="Path 11" d="M82.173,62a2.313,2.313,0,1,0,2.313,2.313A2.313,2.313,0,0,0,82.173,62Z" transform="translate(-4.438 -4.262)" fill="#fff"/>
    <path id="Path_12" data-name="Path 12" d="M73.03,84.618a60.351,60.351,0,0,0-7.7-.948,60.352,60.352,0,0,0-7.7.948,2.322,2.322,0,1,0,.4,4.626,2.532,2.532,0,0,0,.416,0,56.006,56.006,0,0,1,6.938-.879,56,56,0,0,1,6.938.879,2.315,2.315,0,1,0,.821-4.556Z" transform="translate(-4.163 -5.881)" fill="#fff"/>
  </g>
</svg>
