<svg id="_5803980_-_avoid_crowd_coronavirus_group_no_gathering_no_mass" data-name="5803980 - avoid crowd coronavirus group no gathering no mass" xmlns="http://www.w3.org/2000/svg" width="120" height="120" viewBox="0 0 120 120">
  <path id="Path_18" data-name="Path 18" d="M53.875,77A1.875,1.875,0,0,0,52,78.875v21.563a1.875,1.875,0,0,0,3.75,0V78.875A1.875,1.875,0,0,0,53.875,77Z" transform="translate(-3.25 -4.813)" fill="#fff"/>
  <path id="Path_19" data-name="Path 19" d="M73.875,77A1.875,1.875,0,0,0,72,78.875v21.563a1.875,1.875,0,0,0,3.75,0V78.875A1.875,1.875,0,0,0,73.875,77Z" transform="translate(-4.5 -4.813)" fill="#fff"/>
  <path id="Path_20" data-name="Path 20" d="M72.125,62.685a13.125,13.125,0,1,0-17.916,0C49.138,63.651,44,68.123,44,73.748V98.123a1.875,1.875,0,0,0,3.75,0V73.748c0-3.647,4.341-7.5,8.438-7.5H70.25a7.9,7.9,0,0,1,7.5,7.5V98.123a1.875,1.875,0,0,0,3.75,0V73.748a11.587,11.587,0,0,0-9.375-11.062ZM53.806,53.123A9.375,9.375,0,1,1,63.181,62.5,9.375,9.375,0,0,1,53.806,53.123Z" transform="translate(-2.75 -2.498)" fill="#fff"/>
  <path id="Path_21" data-name="Path 21" d="M100.875,75A1.875,1.875,0,0,0,99,76.875v22.5a1.875,1.875,0,0,0,3.75,0v-22.5A1.875,1.875,0,0,0,100.875,75Z" transform="translate(-6.188 -4.688)" fill="#fff"/>
  <path id="Path_22" data-name="Path 22" d="M100.712,63.925a10.312,10.312,0,1,0-7.912,3.75h.319l.159-.047H99.84a5.766,5.766,0,0,1,5.625,5.625V92a1.875,1.875,0,0,0,3.75,0V73.253a9.516,9.516,0,0,0-8.5-9.328ZM86.237,57.316A6.563,6.563,0,1,1,92.8,63.878a6.563,6.563,0,0,1-6.563-6.563Z" transform="translate(-5.153 -2.941)" fill="#fff"/>
  <path id="Path_23" data-name="Path 23" d="M43.313,40.625A10.312,10.312,0,1,1,53.625,30.313,10.312,10.312,0,0,1,43.313,40.625Zm0-16.875a6.563,6.563,0,1,0,6.563,6.563,6.563,6.563,0,0,0-6.563-6.563Z" transform="translate(-2.063 -1.25)" fill="#fff"/>
  <path id="Path_24" data-name="Path 24" d="M83.313,40.625A10.312,10.312,0,1,1,93.625,30.313,10.312,10.312,0,0,1,83.313,40.625Zm0-16.875a6.563,6.563,0,1,0,6.563,6.563,6.563,6.563,0,0,0-6.563-6.563Z" transform="translate(-4.563 -1.25)" fill="#fff"/>
  <path id="Path_25" data-name="Path 25" d="M60,0a60,60,0,1,0,60,60A60,60,0,0,0,60,0Zm0,3.75a56.053,56.053,0,0,1,38.438,15.2L18.947,98.438A56.25,56.25,0,0,1,60,3.75Zm0,112.5a56.053,56.053,0,0,1-38.437-15.2l79.491-79.491A56.25,56.25,0,0,1,60,116.25Z" fill="#fff"/>
  <path id="Path_26" data-name="Path 26" d="M26.365,75a1.875,1.875,0,0,0-1.875,1.875v22.5a1.875,1.875,0,0,0,3.75,0v-22.5A1.875,1.875,0,0,0,26.365,75Z" transform="translate(-1.531 -4.688)" fill="#fff"/>
  <path id="Path_27" data-name="Path 27" d="M32.906,47A10.312,10.312,0,0,0,25,63.875,9.516,9.516,0,0,0,16.49,73.25V92a1.875,1.875,0,0,0,3.75,0V73.25a5.775,5.775,0,0,1,5.625-5.625h7.041a10.312,10.312,0,1,0,0-20.625Zm0,16.875a6.562,6.562,0,1,1,6.563-6.562,6.562,6.562,0,0,1-6.562,6.562Z" transform="translate(-1.031 -2.938)" fill="#fff"/>
</svg>
