<svg xmlns="http://www.w3.org/2000/svg" width="120.043" height="120.133" viewBox="0 0 120.043 120.133">
  <g id="_5803957_-_cleaning_coronavirus_sanitary_soap_wash_wash_hands" data-name="5803957 - cleaning coronavirus sanitary soap wash wash hands" transform="translate(0.041 0.008)">
    <path id="Path_13" data-name="Path 13" d="M120.928,37.326a6.235,6.235,0,0,0-2.335-1.735,7.5,7.5,0,0,0,.563-3.581,6.3,6.3,0,0,0-2.616-4.341,4.772,4.772,0,0,0-3.638-.938,8.016,8.016,0,0,0-3.638,1.744,5.4,5.4,0,0,0-1.172-1.453c-3.1-2.738-6.282-.638-8.6.938l-.516.347C96.964,29.628,86.791,39.763,86.032,40.6c-.422.469-3.075,3.272-5.625,5.991-3.478,3.675-7.079,7.5-7.9,8.438-1.125,1.238-8.063,7.894-10.829,10.548l-1.4.834c.384-4.425.675-11.748-.938-16.876-1.416-4.4-4.5-7.5-8.251-8.279-2.231-.459-4.3,0-5.419,1.294-2.335,2.644-.938,6.947,0,9.788.178.544.422,1.275.478,1.556-.084.591-.656,2.635-1.163,4.444-1.547,5.419-3.835,13.585-3.553,18.32.1,1.538.338,7.125.544,12.048.159,3.919.3,7.294.347,8.072s.075,2.288.094,3.9c0,1.875,0,3.75.113,4.978-.5,1.622-5.56,7.866-10.051,12.826a1.886,1.886,0,0,0,2.813,2.513c7.435-8.213,11.138-13.4,11.016-15.414-.075-1.153-.094-3.169-.113-4.95s0-3.225-.094-4.078-.2-4.275-.356-8.007C45.538,83.6,45.3,78,45.21,76.422c-.253-4.069,2.025-12.188,3.394-17.082.994-3.582,1.341-4.857,1.294-5.625a11.485,11.485,0,0,0-.666-2.541c-.544-1.659-1.678-5.1-.778-6.122a2.888,2.888,0,0,1,2.138,0c1.1.3,3.75,1.444,5.157,5.691,1.875,5.766.881,15.264.525,18.142-4.1,2.578-4.969,4.4-4.95,5.494A1.875,1.875,0,0,0,53.2,76.253h0a1.875,1.875,0,0,0,1.81-1.491c.141-.234.938-1.3,3.928-3.1l4.838-2.878a2.269,2.269,0,0,0,.338-.253c.394-.384,9.685-9.282,11.176-10.97.788-.891,4.528-4.838,7.819-8.316,2.813-2.991,5.278-5.569,5.738-6.085.938-1.1,10.735-10.688,12.188-11.645l.534-.347c2.606-1.734,3.244-1.922,4.041-1.219a2,2,0,0,1,.581,1.875L79.084,65.865a1.866,1.866,0,1,0,2.935,2.306L109.377,33.7h0c.7-.938,2.616-2.991,4.041-3.2a1.013,1.013,0,0,1,.825.206,2.456,2.456,0,0,1,1.2,1.706,5.391,5.391,0,0,1-1.275,3.413h0l-.075.084L88.169,72.737a1.869,1.869,0,0,0,3.066,2.138l25.314-36a2.381,2.381,0,0,1,1.5.863c.263.338.478,2.325-1.163,5.625-1.763,3.582-5.56,9.648-5.719,9.9l-17.7,27.424a1.871,1.871,0,1,0,3.141,2.035L114.224,57.53a1.013,1.013,0,0,1,1.284-.066c.984.591.319,2.728-.366,4.013-.394.731-1.059,2.194-1.875,4.041-1.772,3.891-4.688,10.416-6.15,12.029-1.65,1.875-3.272,5.438-5.147,9.582-.938,2.166-1.988,4.4-3.028,6.422-3.141,6.113-11.251,18.273-16.2,20.758a11.939,11.939,0,0,0-5.466,4.482,1.875,1.875,0,1,0,3.235,1.875c.741-1.256,2.044-2.091,3.91-3.019,6.563-3.263,15.376-17.561,17.814-22.4,1.078-2.11,2.11-4.388,3.1-6.563,1.613-3.544,3.272-7.21,4.538-8.644,1.669-1.875,4.05-6.985,6.76-12.967.778-1.716,1.453-3.2,1.791-3.825,2.044-3.844,1.659-7.379-1-8.982a5.081,5.081,0,0,0-.938-.459c1.256-2.1,2.813-4.735,3.75-6.722C122.325,42.857,122.569,39.257,120.928,37.326Z" transform="translate(-2 -1.605)" fill="#fff"/>
    <path id="Path_14" data-name="Path 14" d="M11.032,112.063a7.032,7.032,0,1,1,7.032-7.032,7.032,7.032,0,0,1-7.032,7.032Zm0-10.313a3.281,3.281,0,1,0,3.281,3.281,3.281,3.281,0,0,0-3.281-3.281Z" transform="translate(-0.252 -6.119)" fill="#fff"/>
    <path id="Path_15" data-name="Path 15" d="M17.563,35.126a6.563,6.563,0,1,1,6.563-6.563,6.563,6.563,0,0,1-6.563,6.563Zm0-9.376a2.813,2.813,0,1,0,2.813,2.813A2.813,2.813,0,0,0,17.563,25.75Z" transform="translate(-0.689 -1.374)" fill="#fff"/>
    <path id="Path_16" data-name="Path 16" d="M92.907,24.814a8.907,8.907,0,1,1,8.907-8.907A8.907,8.907,0,0,1,92.907,24.814Zm0-14.063a5.157,5.157,0,1,0,5.157,5.157A5.157,5.157,0,0,0,92.907,10.75Z" transform="translate(-5.247 -0.438)" fill="#fff"/>
    <path id="Path_17" data-name="Path 17" d="M73.2,34.305a8.682,8.682,0,0,0-.459-4.078,7.829,7.829,0,0,1-.413-1.819c-.459-4.341-2.747-7.05-5.869-6.891a5.063,5.063,0,0,0-1.031.15c-.141-2.447-.356-5.485-.656-7.679-.638-4.6-2.475-7.763-4.913-8.438a6.329,6.329,0,0,0-2.906-.122,7.5,7.5,0,0,0-1.538-3.281A6.263,6.263,0,0,0,50.813,0a4.772,4.772,0,0,0-3.525,1.275,8.035,8.035,0,0,0-2.035,3.478,5.485,5.485,0,0,0-1.791-.544c-4.1-.534-5.55,2.991-6.563,5.56l-.244.572c-.938,2.166-4.491,17.814-4.688,19.408a1.125,1.125,0,0,0,0,.178,12.592,12.592,0,0,0-3.75,8.973,12.807,12.807,0,0,0,.319,2.813,9.816,9.816,0,0,0-6.291,12.723,7.867,7.867,0,0,0-.881.938,39.743,39.743,0,0,0-5.625-5.232c-3.619-2.813-7.988-3.619-11.673-2.11C1.76,48.969.251,50.628,0,52.259c-.459,3.516,3.281,6.15,5.757,7.894.5.356,1.172.834,1.378,1.022.272.544.938,2.55,1.528,4.322,1.781,5.354,4.482,13.435,7.351,17.167.853,1.106,3.666,4.9,6.563,8.766a8.954,8.954,0,0,0,5.4,7.257,1.218,1.218,0,0,0,.094.141c.459.609,1.331,1.875,2.25,3.178,1.088,1.575,2.213,3.2,2.981,4.191s1.266,3.853,1.416,5.541a1.875,1.875,0,0,0,1.847,1.706h.169a1.875,1.875,0,0,0,1.706-2.044c-.084-.881-.563-5.382-2.185-7.5-.7-.938-1.875-2.578-2.878-4.041l-.431-.628a8.86,8.86,0,0,0,4.35-2.091h.047a6.844,6.844,0,0,0,4.847,2.241,1.875,1.875,0,0,0,0-3.75c-.938,0-1.369-.356-2.363-1.247a16.586,16.586,0,0,0-1.688-1.341,1.875,1.875,0,0,0-2.56.45,5.142,5.142,0,1,1-7.454-6.966,1.865,1.865,0,0,0-.1-2.953,4.2,4.2,0,0,1-.159-6.694,1.875,1.875,0,0,0-.5-3.216,6.075,6.075,0,0,1-2.906-9.019,1.875,1.875,0,0,0-.084-2.241,3.75,3.75,0,0,1,1.088-5.691,1.875,1.875,0,0,0,.731-2.588,6.038,6.038,0,0,1-.881-3.028A6.1,6.1,0,0,1,31.021,45a1.931,1.931,0,0,0,1.594-2.663,8.823,8.823,0,0,1-.741-3.431A8.926,8.926,0,0,1,40.782,30h.5a1.875,1.875,0,0,0,1.95-1.547,6.085,6.085,0,0,1,12.085,1.078,5.879,5.879,0,0,1-.272,1.81,1.875,1.875,0,0,0,1.875,2.428l.272-.019a8.438,8.438,0,0,1,6.019,2.522,1.875,1.875,0,0,0,1.734.525,9.469,9.469,0,0,1,2.11-.234,9.854,9.854,0,0,1,9.826,9.844,1.875,1.875,0,0,0,3.75,0A13.576,13.576,0,0,0,73.2,34.3ZM23.746,75.942A7.876,7.876,0,0,0,22.5,80.161a7.969,7.969,0,0,0,1.772,5,8.86,8.86,0,0,0-.778,1.238C21.43,83.583,19.658,81.23,19,80.368c-2.485-3.225-5.166-11.251-6.76-16.051-1.172-3.525-1.6-4.772-2.091-5.4A10.379,10.379,0,0,0,7.957,57.1c-1.3-.938-4.369-3.085-4.21-4.322a3.4,3.4,0,0,1,2.063-1.4c1.125-.356,4.116-.938,7.5,1.753,4.519,3.544,6.038,5.794,6.4,6.432V60a7.5,7.5,0,0,0,.984,3.75,9.807,9.807,0,0,0,3.056,12.188ZM39.956,26.251a12.629,12.629,0,0,0-3.675.816c1.106-4.978,3.263-14.063,3.75-15.292l.281-.525c1.181-2.878,1.6-3.4,2.663-3.263a2.025,2.025,0,0,1,1.538,1.238l-.45,11.916a9.807,9.807,0,0,0-4.107,5.11Zm7.941-6.5.384-10.8h0c0-1.181.478-3.928,1.547-4.913a1,1,0,0,1,.8-.291,2.41,2.41,0,0,1,1.875.816A5.429,5.429,0,0,1,53.439,8.1s0,0,0,.066v12.46a9.732,9.732,0,0,0-4.21-.938,10.613,10.613,0,0,0-1.331.094Zm9.291,4.022V9.272a2.456,2.456,0,0,1,1.7-.122c.413.141,1.706,1.669,2.213,5.353.544,3.957.8,11.138.806,11.41l-.028,5.025a12.188,12.188,0,0,0-2.813-.8c0-.2,0-.4,0-.609a9.741,9.741,0,0,0-1.875-5.757ZM65.627,32.9a.29.29,0,0,0,0-.094V26.092a1.05,1.05,0,0,1,1.031-.834h0c1.125,0,1.753,2.1,1.875,3.535a10.951,10.951,0,0,0,.591,2.606,5.063,5.063,0,0,1,.319,1.65,13.229,13.229,0,0,0-2.391-.234A8.08,8.08,0,0,0,65.627,32.9Z" transform="translate(0 0)" fill="#fff"/>
  </g>
</svg>
