<svg xmlns="http://www.w3.org/2000/svg" width="36" height="36" viewBox="0 0 36 36">
  <path id="sync-alt-solid" d="M34.326,17.093a12.2,12.2,0,0,0-20.153,5.92.873.873,0,0,1-.846.664H9.169a.87.87,0,0,1-.857-1.029,18,18,0,0,1,30.122-9.663l2.592-2.592A1.742,1.742,0,0,1,44,11.625v9.73A1.742,1.742,0,0,1,42.258,23.1h-9.73A1.742,1.742,0,0,1,31.3,20.123ZM9.742,28.9h9.73A1.742,1.742,0,0,1,20.7,31.877l-3.03,3.03a12.2,12.2,0,0,0,20.153-5.92.873.873,0,0,1,.846-.664h4.159a.87.87,0,0,1,.857,1.029,18,18,0,0,1-30.122,9.663l-2.592,2.592A1.742,1.742,0,0,1,8,40.375v-9.73A1.742,1.742,0,0,1,9.742,28.9Z" transform="translate(-8 -8)" fill="#fff"/>
</svg>
