<svg xmlns="http://www.w3.org/2000/svg" width="45" height="36" viewBox="0 0 45 36">
  <path id="viruses-solid" d="M43.875,24.75h-.852a2.25,2.25,0,0,1-1.591-3.841l.6-.6a1.125,1.125,0,1,0-1.591-1.591l-.6.6A2.25,2.25,0,0,1,36,17.727v-.852a1.125,1.125,0,0,0-2.25,0v.852a2.25,2.25,0,0,1-3.841,1.591l-.6-.6a1.125,1.125,0,1,0-1.591,1.591l.6.6a2.25,2.25,0,0,1-1.591,3.841h-.852a1.125,1.125,0,0,0,0,2.25h.852a2.25,2.25,0,0,1,1.591,3.841l-.6.6a1.125,1.125,0,0,0,1.591,1.591l.6-.6a2.25,2.25,0,0,1,3.841,1.591v.852a1.125,1.125,0,1,0,2.25,0v-.852a2.25,2.25,0,0,1,3.841-1.591l.6.6a1.125,1.125,0,1,0,1.591-1.591l-.6-.6A2.25,2.25,0,0,1,43.023,27h.852a1.125,1.125,0,0,0,0-2.25ZM33.75,27A2.25,2.25,0,1,1,36,24.75,2.25,2.25,0,0,1,33.75,27ZM24.364,15H25.5a1.5,1.5,0,0,0,0-3H24.364a3,3,0,0,1-2.121-5.122l.8-.8a1.5,1.5,0,1,0-2.121-2.121l-.8.8A3,3,0,0,1,15,2.636V1.5a1.5,1.5,0,0,0-3,0V2.636A3,3,0,0,1,6.879,4.757l-.8-.8A1.5,1.5,0,1,0,3.954,6.074l.8.8A3,3,0,0,1,2.636,12H1.5a1.5,1.5,0,1,0,0,3H2.636a3,3,0,0,1,2.121,5.122l-.8.8a1.5,1.5,0,0,0,2.121,2.121l.8-.8A3,3,0,0,1,12,24.364V25.5a1.5,1.5,0,1,0,3,0V24.364a3,3,0,0,1,5.122-2.121l.8.8a1.5,1.5,0,1,0,2.121-2.121l-.8-.8A3,3,0,0,1,24.364,15ZM11.25,13.5a2.25,2.25,0,1,1,2.25-2.25A2.25,2.25,0,0,1,11.25,13.5Zm5.625,2.25A1.125,1.125,0,1,1,18,14.625,1.125,1.125,0,0,1,16.875,15.75Z" fill="#fff"/>
</svg>
